<svg xmlns="http://www.w3.org/2000/svg" xmlns:xlink="http://www.w3.org/1999/xlink" viewBox="0 0 263.88 81.24"><defs><style>.a,.k,.o,.s,.w{fill:none;}.b{clip-path:url(#a);}.c{filter:url(#b);}.d{fill:url(#c);}.e{clip-path:url(#d);}.f{filter:url(#e);}.g{fill:url(#f);}.h{clip-path:url(#g);}.i{filter:url(#h);}.j{fill:url(#i);}.k,.o,.s{stroke:#807ead;}.k,.o,.s,.w{stroke-linejoin:round;}.k{stroke-width:0.65px;}.l{clip-path:url(#j);}.m{filter:url(#k);}.n{fill:url(#l);}.o{stroke-width:0.79px;}.p{clip-path:url(#m);}.q{filter:url(#n);}.r{fill:url(#o);}.s{stroke-width:1.08px;}.t{clip-path:url(#p);}.u{filter:url(#q);}.v{fill:url(#r);}.w{stroke:#e3d7eb;stroke-linecap:round;stroke-width:1.5px;}.x{fill:url(#s);}.y{fill:url(#t);}.z{fill:url(#u);}.aa{fill:url(#v);}.ab,.ac{isolation:isolate;}.ac{font-size:18.57px;fill:#3c0f51;font-family:Arial;font-weight:700;}</style><clipPath id="a" transform="translate(3.13 15.45)"><path class="a" d="M8.65,1.16H53.82a7.58,7.58,0,0,1,7.37,7.79V52.27a7.58,7.58,0,0,1-7.37,7.79H8.65a7.58,7.58,0,0,1-7.37-7.79V8.94A7.58,7.58,0,0,1,8.65,1.16Z"/></clipPath><filter id="b" name="filter6654"><feGaussianBlur result="feGaussianBlur6656" stdDeviation="0.45"/></filter><linearGradient id="c" x1="328.67" y1="-744.19" x2="347.78" y2="-724.54" gradientTransform="matrix(0.96, 0, 0, -1.01, -271.48, -721)" gradientUnits="userSpaceOnUse"><stop offset="0" stop-color="#fff"/><stop offset="1" stop-color="#fff" stop-opacity="0"/></linearGradient><clipPath id="d" transform="translate(3.13 15.45)"><path class="a" d="M9,1.16H53.49a7.74,7.74,0,0,1,7.7,7.79V52.27a7.74,7.74,0,0,1-7.7,7.79H9a7.74,7.74,0,0,1-7.7-7.79V8.94A7.74,7.74,0,0,1,9,1.16Z"/></clipPath><filter id="e" name="filter6650"><feGaussianBlur result="feGaussianBlur6652" stdDeviation="0.4"/></filter><linearGradient id="f" x1="279.75" y1="-761.21" x2="329.03" y2="-719.83" gradientTransform="matrix(1.09, 0, 0, -1.1, -283.89, -781.58)" gradientUnits="userSpaceOnUse"><stop offset="0" stop-color="#8d89c2"/><stop offset="1" stop-color="#fffff9" stop-opacity="0.98"/></linearGradient><clipPath id="g" transform="translate(3.13 15.45)"><path class="a" d="M9,1.16H53.43a7.77,7.77,0,0,1,7.75,7.79V52.27a7.77,7.77,0,0,1-7.75,7.79H9a7.77,7.77,0,0,1-7.75-7.79V8.94A7.77,7.77,0,0,1,9,1.16Z"/></clipPath><filter id="h" name="filter6646"><feGaussianBlur result="feGaussianBlur6648" stdDeviation="0.13"/></filter><linearGradient id="i" x1="-113.91" y1="-447.99" x2="-123.2" y2="-438.61" gradientTransform="matrix(0, -3.37, -3.35, 0, -1440.83, -383.52)" xlink:href="#f"/><clipPath id="j" transform="translate(3.13 15.45)"><path class="a" d="M8.67,1.16H53.8a7.59,7.59,0,0,1,7.38,7.79V52.27a7.59,7.59,0,0,1-7.38,7.79H8.67a7.59,7.59,0,0,1-7.38-7.79V8.94A7.59,7.59,0,0,1,8.67,1.16Z"/></clipPath><filter id="k" name="filter6642"><feGaussianBlur result="feGaussianBlur6644" stdDeviation="0.16"/></filter><linearGradient id="l" x1="-117.19" y1="-462.49" x2="-127.93" y2="-450.85" gradientTransform="matrix(0, -2.87, -2.72, 0, -1208.45, -322.49)" xlink:href="#f"/><clipPath id="m" transform="translate(3.13 15.45)"><path class="a" d="M8.79,1.16H53.68a7.65,7.65,0,0,1,7.51,7.79V52.27a7.65,7.65,0,0,1-7.51,7.79H8.79a7.65,7.65,0,0,1-7.51-7.79V8.94A7.65,7.65,0,0,1,8.79,1.16Z"/></clipPath><filter id="n" name="filter6638"><feGaussianBlur result="feGaussianBlur6640" stdDeviation="0.22"/></filter><linearGradient id="o" x1="-123.87" y1="-491.16" x2="-135.45" y2="-478.09" gradientTransform="matrix(0, -2.07, -1.99, 0, -943.41, -231.56)" xlink:href="#f"/><clipPath id="p" transform="translate(3.13 15.45)"><path class="a" d="M8.92,1.16H53.55a7.71,7.71,0,0,1,7.64,7.79V52.27a7.71,7.71,0,0,1-7.64,7.79H8.92a7.71,7.71,0,0,1-7.64-7.79V8.94A7.71,7.71,0,0,1,8.92,1.16Z"/></clipPath><filter id="q" name="filter6634"><feGaussianBlur result="feGaussianBlur6636" stdDeviation="0.29"/></filter><linearGradient id="r" x1="-134.78" y1="-524.04" x2="-148.91" y2="-509.9" gradientTransform="matrix(0, -1.52, -1.49, 0, -759.8, -166.05)" gradientUnits="userSpaceOnUse"><stop offset="0" stop-color="#6f1171"/><stop offset="1" stop-color="#bea1c7"/></linearGradient><linearGradient id="s" x1="220.13" y1="-812.32" x2="220.3" y2="-871.39" gradientTransform="matrix(1, 0, 0, -1, -124.28, -794.31)" gradientUnits="userSpaceOnUse"><stop offset="0" stop-color="#3c0f51"/><stop offset="1" stop-color="#bea1c7"/></linearGradient><linearGradient id="t" x1="284.17" y1="-812.13" x2="284.34" y2="-871.2" gradientTransform="matrix(1, 0, 0, -1, -133.71, -794.06)" xlink:href="#s"/><linearGradient id="u" x1="337.25" y1="-811.98" x2="337.43" y2="-871.04" gradientTransform="matrix(1, 0, 0, -1, -145.17, -794.31)" xlink:href="#s"/><linearGradient id="v" x1="384.94" y1="-811.84" x2="385.11" y2="-870.91" gradientTransform="matrix(1, 0, 0, -1, -148.74, -794.31)" xlink:href="#s"/></defs><title>mqttorg-default</title><g class="b"><g class="c"><rect class="d" x="3.87" y="16.7" width="55.82" height="59.12"/></g></g><g class="e"><g class="f"><rect class="g" y="16.9" width="63.47" height="64.34"/></g></g><g class="h"><g class="i"><path class="j" d="M-0.27-15.13A77.52,77.52,0,0,1,77.08,62.34l-77.36.21V-15.13Z" transform="translate(3.13 15.45)"/><path class="k" d="M-0.27-15.13A77.52,77.52,0,0,1,77.08,62.34l-77.36.21V-15.13Z" transform="translate(3.13 15.45)"/></g></g><g class="l"><g class="m"><path class="n" d="M0.11-1.47c34.58,0,62.64,29.51,62.74,66l-62.74.18V-1.47Z" transform="translate(3.13 15.45)"/><path class="o" d="M0.11-1.47c34.58,0,62.64,29.51,62.74,66l-62.74.18V-1.47Z" transform="translate(3.13 15.45)"/></g></g><g class="p"><g class="q"><path class="r" d="M-0.38,13.64c25.36,0,45.94,21.29,46,47.59l-46,.13V13.64Z" transform="translate(3.13 15.45)"/><path class="s" d="M-0.38,13.64c25.36,0,45.94,21.29,46,47.59l-46,.13V13.64Z" transform="translate(3.13 15.45)"/></g></g><g class="t"><g class="u"><path class="v" d="M-1,27.12c19,0,34.34,15.64,34.39,35L-1,62.18V27.12Z" transform="translate(3.13 15.45)"/></g></g><rect class="w" x="3.87" y="16.2" width="59.9" height="58.9" rx="7.79" ry="7.79"/><path class="x" d="M68.91,57V1.21H85.79L95.92,39.3l10-38.09h16.91V57H112.37v-44L101.29,57H90.43l-11-44V57H68.91" transform="translate(3.13 15.45)"/><path class="y" d="M169.63,50.22a36.84,36.84,0,0,0,9,4.72l-4.15,8a25.71,25.71,0,0,1-5-2.09q-0.53-.27-7.5-5a30,30,0,0,1-12.15,2.4q-12.87,0-20.19-7.58t-7.27-21.29q0-13.67,7.31-21.25t19.84-7.62q12.42,0,19.69,7.62t7.27,21.25a36.75,36.75,0,0,1-2,12.72,26.46,26.46,0,0,1-4.87,8.11m-9.06-6.36a16.64,16.64,0,0,0,3.24-6.17,28.47,28.47,0,0,0,1.1-8.3q0-9.67-4.27-14.43a15.42,15.42,0,0,0-22.36,0Q134,19.75,134,29.38q0,9.79,4.27,14.66a13.91,13.91,0,0,0,10.85,4.84,13.22,13.22,0,0,0,4.61-.8,32.61,32.61,0,0,0-7-3.5l3.16-6.44a38.29,38.29,0,0,1,10.63,5.71" transform="translate(3.13 15.45)"/><path class="z" d="M186.43,57V10.66H169.86V1.21h44.37v9.45H197.7V57H186.43" transform="translate(3.13 15.45)"/><path class="aa" d="M230.55,57V10.66H214V1.21h44.37v9.45H241.82V57H230.55" transform="translate(3.13 15.45)"/><g class="ab"><text class="ac" transform="translate(247.95 27.63) rotate(90) scale(0.95 1)">.ORG</text></g></svg>